<svg width="35" height="35" viewBox="0 0 35 35" fill="none" xmlns="http://www.w3.org/2000/svg">
<path d="M17.5 3.5C9.7685 3.5 3.5 9.7685 3.5 17.5C3.5 25.2315 9.7685 31.5 17.5 31.5C25.2315 31.5 31.5 25.2315 31.5 17.5C31.5 9.7685 25.2315 3.5 17.5 3.5ZM25.3248 14.8248L16.5048 23.6448C16.2855 23.8642 15.9892 23.9867 15.68 23.9867C15.3708 23.9867 15.0733 23.8642 14.8552 23.6448L10.8267 19.6163C10.3705 19.1602 10.3705 18.4228 10.8267 17.9667C11.2828 17.5105 12.0202 17.5105 12.4763 17.9667L15.68 21.1703L23.6752 13.1752C24.1313 12.719 24.8687 12.719 25.3248 13.1752C25.781 13.6313 25.781 14.3687 25.3248 14.8248Z" fill="#F9B22D"/>
</svg>
