<svg width="359" height="776" viewBox="0 0 359 776" fill="none" xmlns="http://www.w3.org/2000/svg">
<path d="M248.321 169.063C246.039 159.028 239.72 120.64 234.707 73.4246C230.591 34.5054 255.339 0 287.461 0H305.797C335.268 0 359.131 29.2539 358.999 65.2412C358.34 248.368 354.039 526.908 340.28 550.507C328.777 570.225 316.074 610.545 307.446 641.845C297.183 679.041 279.242 712.483 254.996 738.241C254.27 739.014 253.545 739.771 252.832 740.496C237.477 756.283 218.851 766.625 199.076 770.813C40.6963 804.32 0.329579 667.49 0.197662 589.797C0.197662 588.412 0.158087 587.026 0.092128 585.641C-1.76791 541.148 23.8241 444.8 142.062 398.729C262.185 351.948 262.964 226.121 248.321 169.063Z" fill="#F6F5FC"/>
</svg>
